<svg xmlns="http://www.w3.org/2000/svg" width="48" height="48" viewBox="0 0 48 48"><g><circle fill="#25d366" cx="24" cy="24" r="24"/><path fill="#fff" d="M36.1 32.2c-.5-.2-2.8-1.4-3.2-1.6-.4-.2-.7-.2-1 .2-.3.4-1.1 1.6-1.4 1.9-.3.3-.5.4-1 .1-.5-.2-2- .7-3.8-2.2-1.4-1.2-2.3-2.7-2.6-3.2-.3-.5 0-.7.2-.9.2-.2.4-.5.6-.7.2-.2.2-.4.3-.7.1-.2.1-.5 0-.7-.1-.2-.9-2.2-1.2-3-.3-.7-.6-.6-.9-.6-.2 0-.5 0-.7 0-.2 0-.7.1-1.1.5-.4.4-1.5 1.5-1.5 3.6 0 2.1 1.5 4.1 1.7 4.4.2.3 3.1 4.7 7.6 6.3 1.1.4 2 .7 2.7.9 1.1.3 2.1.3 2.9.2.9-.1 2.8-1.1 3.2-2.2.4-1.1.4-2 .3-2.2-.1-.2-.4-.3-.9-.5z"/></g></svg>
